400 0 1 0        
7 Unknown 13 ACIS 5.0.1 NT 24 Thu May 16 12:20:01 2024
1 9.9999999999999995e-007 1e-010 
-0 body $-1 $2 $-1 $1 #                                                                                            
-1 transform $-1 1 0 0 0 1 0 0 0 1 0 0 0 1 0 0 0 #
-2 lump $-1 $-1 $3 $0 #
-3 shell $-1 $-1 $-1 $4 $-1 $2 #
-4 face $-1 $15 $6 $3 $-1 $5 forward single #
-5 spline-surface $-1 forward { exactsur nubs 1 1 open open none none 2 2
        0 1 70 1 
        65 1 85 1 
        12.769402719994314 19.99999999999995 20 
        12.769402719994314 19.99999999999995 90 
        12.769402719994314 -4.9737991503207013e-14 20 
        12.769402719994314 -4.9737991503207013e-14 90 
        0
        0
        0
        0
        0
        0
        0
        F 0 F 70 F 65 F 85 } F 0 F 70 F 65 F 85 #
-6 loop $-1 $-1 $7 $4 #
-7 coedge $-1 $9 $13 $46 $102 forward $6 $8 #
-8 pcurve $-1 0 forward { exppc nubs 1 open 2
        -0 1 70 1 
        0 65 
        70 65 
        0
        spline 0 { ref 0 } F 0 F 70 F 65 F 85 
        } 0 0 #
-9 coedge $-1 $11 $7 $76 $106 forward $6 $10 #
-10 pcurve $-1 0 forward { exppc nubs 1 open 2
        65 1 85 1 
        70 65 
        70 85 
        0
        spline 0 { ref 0 } F 0 F 70 F 65 F 85 
        } 0 0 #
-11 coedge $-1 $13 $9 $35 $100 reversed $6 $12 #
-12 pcurve $-1 0 forward { exppc nubs 1 open 2
        -70 1 -0 1 
        70 85 
        0 85 
        0
        spline 0 { ref 0 } F 0 F 70 F 65 F 85 
        } 0 0 #
-13 coedge $-1 $7 $11 $98 $104 reversed $6 $14 #
-14 pcurve $-1 0 forward { exppc nubs 1 open 2
        -85 1 -65 1 
        0 85 
        0 65 
        0
        spline 0 { ref 0 } F 0 F 70 F 65 F 85 
        } 0 0 #
-15 face $-1 $26 $17 $3 $-1 $16 forward single #
-16 spline-surface $-1 forward { exactsur nubs 1 1 open open none none 2 2
        0 1 20 1 
        100 1 120 1 
        33.0694027199945 19.99999999999995 20 
        33.0694027199945 -4.9737991503207013e-14 20 
        33.0694027199945 19.99999999999995 0 
        33.0694027199945 -4.9737991503207013e-14 0 
        0
        0
        0
        0
        0
        0
        0
        F 0 F 20 F 100 F 120 } F 0 F 20 F 100 F 120 #
-17 loop $-1 $-1 $18 $15 #
-18 coedge $-1 $20 $24 $94 $108 forward $17 $19 #
-19 pcurve $-1 0 forward { exppc nubs 1 open 2
        -0 1 20 1 
        0 100 
        20 100 
        0
        spline 0 { ref 5 } F 0 F 20 F 100 F 120 
        } 0 0 #
-20 coedge $-1 $22 $18 $31 $110 forward $17 $21 #
-21 pcurve $-1 0 forward { exppc nubs 1 open 2
        100 1 120 1 
        20 100 
        20 120 
        0
        spline 0 { ref 5 } F 0 F 20 F 100 F 120 
        } 0 0 #
-22 coedge $-1 $24 $20 $85 $114 reversed $17 $23 #
-23 pcurve $-1 0 forward { exppc nubs 1 open 2
        -20 1 -0 1 
        20 120 
        0 120 
        0
        spline 0 { ref 5 } F 0 F 20 F 100 F 120 
        } 0 0 #
-24 coedge $-1 $18 $22 $50 $112 reversed $17 $25 #
-25 pcurve $-1 0 forward { exppc nubs 1 open 2
        -120 1 -100 1 
        0 120 
        0 100 
        0
        spline 0 { ref 5 } F 0 F 20 F 100 F 120 
        } 0 0 #
-26 face $-1 $41 $28 $3 $-1 $27 forward single #
-27 spline-surface $-1 forward { exactsur nubs 1 1 open open none none 2 2
        7.1054273576010019e-15 1 90 1 
        0 1 44.718536412039292 1 
        33.0694027199945 -4.9737991503207013e-14 0 
        33.0694027199945 -4.9737991503207013e-14 90 
        -11.649133692044966 -4.9737991503207013e-14 0 
        -11.649133692044966 -4.9737991503207013e-14 90 
        0
        0
        0
        0
        0
        0
        0
        F 7.1054273576010019e-15 F 90 F 0 F 44.718536412039292 } F 7.1054273576010019e-15 F 90 F 0 F 44.718536412039292 #
-28 loop $-1 $-1 $29 $26 #
-29 coedge $-1 $31 $39 $87 $122 reversed $28 $30 #
-30 pcurve $-1 0 forward { exppc nubs 1 open 2
        -44.718536412039285 1 -0 1 
        7.1054273576010019e-15 44.718536412039271 
        7.1054273576010019e-15 0 
        0
        spline 0 { ref 10 } F 7.1054273576010019e-15 F 90 F 0 F 44.718536412039292 
        } 0 0 #
-31 coedge $-1 $33 $29 $20 $110 reversed $28 $32 #
-32 pcurve $-1 0 forward { exppc nubs 1 open 2
        -120 1 -100 1 
        7.1054273576010019e-15 0 
        20.000000000000007 0 
        0
        spline 0 { ref 10 } F 7.1054273576010019e-15 F 90 F 0 F 44.718536412039292 
        } 0 0 #
-33 coedge $-1 $35 $31 $92 $116 forward $28 $34 #
-34 pcurve $-1 0 forward { exppc nubs 1 open 2
        2.2000000000000028 1 22.5 1 
        20.000000000000007 0 
        20.000000000000007 20.299999999999997 
        0
        spline 0 { ref 10 } F 7.1054273576010019e-15 F 90 F 0 F 44.718536412039292 
        } 0 0 #
-35 coedge $-1 $37 $33 $11 $100 forward $28 $36 #
-36 pcurve $-1 0 forward { exppc nubs 1 open 2
        -0 1 70 1 
        20.000000000000007 20.299999999999997 
        90 20.299999999999997 
        0
        spline 0 { ref 10 } F 7.1054273576010019e-15 F 90 F 0 F 44.718536412039292 
        } 0 0 #
-37 coedge $-1 $39 $35 $74 $118 forward $28 $38 #
-38 pcurve $-1 0 forward { exppc nubs 1 open 2
        -0 1 24.418536412039288 1 
        90 20.299999999999997 
        90 44.718536412039292 
        0
        spline 0 { ref 10 } F 7.1054273576010019e-15 F 90 F 0 F 44.718536412039292 
        } 0 0 #
-39 coedge $-1 $29 $37 $65 $120 reversed $28 $40 #
-40 pcurve $-1 0 forward { exppc nubs 1 open 2
        9.0000022121551257 1 99.000002212155096 1 
        90 44.718536412039292 
        7.1054273576010019e-15 44.718536412039271 
        0
        spline 0 { ref 10 } F 7.1054273576010019e-15 F 90 F 0 F 44.718536412039292 
        } 0 0 #
-41 face $-1 $56 $43 $3 $-1 $42 forward single #
-42 spline-surface $-1 forward { exactsur nubs 1 1 open open none none 2 2
        0 1 90 1 
        1.2802339219589669 1 45.998770333998259 1 
        -11.649133692044966 19.99999999999995 0 
        -11.649133692044966 19.99999999999995 90 
        33.0694027199945 19.99999999999995 0 
        33.0694027199945 19.99999999999995 90 
        0
        0
        0
        0
        0
        0
        0
        F 0 F 90 F 1.2802339219589669 F 45.998770333998259 } F 0 F 90 F 1.2802339219589669 F 45.998770333998259 #
-43 loop $-1 $-1 $44 $41 #
-44 coedge $-1 $46 $54 $70 $128 forward $43 $45 #
-45 pcurve $-1 0 forward { exppc nubs 1 open 2
        1.2802339219589776 1 25.698770333998247 1 
        90 1.28023392195898 
        90 25.698770333998262 
        0
        spline 0 { ref 17 } F 0 F 90 F 1.2802339219589669 F 45.998770333998259 
        } 0 0 #
-46 coedge $-1 $48 $44 $7 $102 reversed $43 $47 #
-47 pcurve $-1 0 forward { exppc nubs 1 open 2
        -70 1 -0 1 
        90 25.698770333998262 
        20 25.698770333998262 
        0
        spline 0 { ref 17 } F 0 F 90 F 1.2802339219589669 F 45.998770333998259 
        } 0 0 #
-48 coedge $-1 $50 $46 $96 $124 forward $43 $49 #
-49 pcurve $-1 0 forward { exppc nubs 1 open 2
        27.5 1 47.799999999999997 1 
        20 25.698770333998262 
        20 45.998770333998259 
        0
        spline 0 { ref 17 } F 0 F 90 F 1.2802339219589669 F 45.998770333998259 
        } 0 0 #
-50 coedge $-1 $52 $48 $24 $112 forward $43 $51 #
-51 pcurve $-1 0 forward { exppc nubs 1 open 2
        100 1 120 1 
        20 45.998770333998259 
        0 45.998770333998259 
        0
        spline 0 { ref 17 } F 0 F 90 F 1.2802339219589669 F 45.998770333998259 
        } 0 0 #
-52 coedge $-1 $54 $50 $83 $130 forward $43 $53 #
-53 pcurve $-1 0 forward { exppc nubs 1 open 2
        -0 1 44.718536412039285 1 
        0 45.998770333998259 
        0 1.2802339219589669 
        0
        spline 0 { ref 17 } F 0 F 90 F 1.2802339219589669 F 45.998770333998259 
        } 0 0 #
-54 coedge $-1 $44 $52 $61 $126 reversed $43 $55 #
-55 pcurve $-1 0 forward { exppc nubs 1 open 2
        -99.000002212155096 1 -9.0000022121551257 1 
        0 1.2802339219589669 
        90 1.28023392195898 
        0
        spline 0 { ref 17 } F 0 F 90 F 1.2802339219589669 F 45.998770333998259 
        } 0 0 #
-56 face $-1 $67 $58 $3 $-1 $57 forward single #
-57 spline-surface $-1 forward { exactsur nubs 1 1 open open none none 2 2
        9.0000022121551257 1 99.00000221215511 1 
        6.6613381477509392e-16 1 19.999999999999996 1 
        -11.649133692044206 19.99999999999994 89.999999999999957 
        -11.649133692044206 19.99999999999994 -8.1712414612411521e-14 
        -11.649133692044206 -5.1514348342607263e-14 89.999999999999957 
        -11.649133692044206 -5.1514348342607263e-14 -8.1712414612411521e-14 
        0
        0
        0
        0
        0
        0
        0
        F 9.0000022121551257 F 99.00000221215511 F 6.6613381477509392e-16 F 19.999999999999996 } F 9.0000022121551257 F 99.00000221215511 F 6.6613381477509392e-16 F 19.999999999999996 #
-58 loop $-1 $-1 $59 $56 #
-59 coedge $-1 $61 $65 $72 $132 forward $58 $60 #
-60 pcurve $-1 0 forward { exppc nubs 1 open 2
        -20 1 1.7763568394002505e-15 1 
        9.0000022121551257 19.999999999999996 
        9.0000022121551257 6.6613381477509392e-16 
        0
        spline 0 { ref 24 } F 9.0000022121551257 F 99.00000221215511 F 6.6613381477509392e-16 F 19.999999999999996 
        } 0 0 #
-61 coedge $-1 $63 $59 $54 $126 forward $58 $62 #
-62 pcurve $-1 0 forward { exppc nubs 1 open 2
        9.0000022121551257 1 99.000002212155096 1 
        9.0000022121551257 6.6613381477509392e-16 
        99.000002212155096 6.6613381477509392e-16 
        0
        spline 0 { ref 24 } F 9.0000022121551257 F 99.00000221215511 F 6.6613381477509392e-16 F 19.999999999999996 
        } 0 0 #
-63 coedge $-1 $65 $61 $81 $134 forward $58 $64 #
-64 pcurve $-1 0 forward { exppc nubs 1 open 2
        0 1 20 1 
        99.000002212155096 6.6613381477509392e-16 
        99.00000221215511 19.999999999999996 
        0
        spline 0 { ref 24 } F 9.0000022121551257 F 99.00000221215511 F 6.6613381477509392e-16 F 19.999999999999996 
        } 0 0 #
-65 coedge $-1 $59 $63 $39 $120 forward $58 $66 #
-66 pcurve $-1 0 forward { exppc nubs 1 open 2
        -99.000002212155096 1 -9.0000022121551257 1 
        99.00000221215511 19.999999999999996 
        9.0000022121551257 19.999999999999996 
        0
        spline 0 { ref 24 } F 9.0000022121551257 F 99.00000221215511 F 6.6613381477509392e-16 F 19.999999999999996 
        } 0 0 #
-67 face $-1 $78 $69 $3 $-1 $68 forward single #
-68 spline-surface $-1 forward { exactsur nubs 1 1 open open none none 2 2
        0 1 20 1 
        -24.41853641203852 1 0 1 
        -11.649133692044206 19.99999999999995 90 
        -11.649133692044206 -4.9737991503207013e-14 89.999999999999986 
        12.769402719994314 19.99999999999995 90 
        12.769402719994314 -4.9737991503207013e-14 89.999999999999986 
        0
        0
        0
        0
        0
        0
        0
        F 0 F 20 F -24.41853641203852 F 0 } F 0 F 20 F -24.41853641203852 F 0 #
-69 loop $-1 $-1 $70 $67 #
-70 coedge $-1 $72 $76 $44 $128 reversed $69 $71 #
-71 pcurve $-1 0 forward { exppc nubs 1 open 2
        -25.698770333998247 1 -1.2802339219589776 1 
        0 0 
        0 -24.41853641203852 
        0
        spline 0 { ref 29 } F 0 F 20 F -24.41853641203852 F 0 
        } 0 0 #
-72 coedge $-1 $74 $70 $59 $132 reversed $69 $73 #
-73 pcurve $-1 0 forward { exppc nubs 1 open 2
        -1.7763568394002505e-15 1 20 1 
        0 -24.41853641203852 
        20 -24.41853641203852 
        0
        spline 0 { ref 29 } F 0 F 20 F -24.41853641203852 F 0 
        } 0 0 #
-74 coedge $-1 $76 $72 $37 $118 reversed $69 $75 #
-75 pcurve $-1 0 forward { exppc nubs 1 open 2
        -24.418536412039288 1 -0 1 
        20 -24.41853641203852 
        20 0 
        0
        spline 0 { ref 29 } F 0 F 20 F -24.41853641203852 F 0 
        } 0 0 #
-76 coedge $-1 $70 $74 $9 $106 reversed $69 $77 #
-77 pcurve $-1 0 forward { exppc nubs 1 open 2
        -85 1 -65 1 
        20 0 
        0 0 
        0
        spline 0 { ref 29 } F 0 F 20 F -24.41853641203852 F 0 
        } 0 0 #
-78 face $-1 $89 $80 $3 $-1 $79 forward single #
-79 spline-surface $-1 forward { exactsur nubs 1 1 open open none none 2 2
        0 1 44.718536412038702 1 
        -20 1 0 1 
        -11.649133692044206 19.99999999999995 1.1102231396367717e-14 
        33.0694027199945 19.99999999999995 1.1102231396367717e-14 
        -11.649133692044206 -4.9737991503207013e-14 0 
        33.0694027199945 -4.9737991503207013e-14 0 
        0
        0
        0
        0
        0
        0
        0
        F 0 F 44.718536412038702 F -20 F 0 } F 0 F 44.718536412038702 F -20 F 0 #
-80 loop $-1 $-1 $81 $78 #
-81 coedge $-1 $83 $87 $63 $134 reversed $80 $82 #
-82 pcurve $-1 0 forward { exppc nubs 1 open 2
        -20 1 0 1 
        0 0 
        0 -20 
        0
        spline 0 { ref 34 } F 0 F 44.718536412038702 F -20 F 0 
        } 0 0 #
-83 coedge $-1 $85 $81 $52 $130 reversed $80 $84 #
-84 pcurve $-1 0 forward { exppc nubs 1 open 2
        -44.718536412039285 1 -0 1 
        0 -20 
        44.718536412038702 -20 
        0
        spline 0 { ref 34 } F 0 F 44.718536412038702 F -20 F 0 
        } 0 0 #
-85 coedge $-1 $87 $83 $22 $114 forward $80 $86 #
-86 pcurve $-1 0 forward { exppc nubs 1 open 2
        0 1 20 1 
        44.718536412038702 -20 
        44.718536412038702 0 
        0
        spline 0 { ref 34 } F 0 F 44.718536412038702 F -20 F 0 
        } 0 0 #
-87 coedge $-1 $81 $85 $29 $122 forward $80 $88 #
-88 pcurve $-1 0 forward { exppc nubs 1 open 2
        0 1 44.718536412039285 1 
        44.718536412038702 0 
        0 0 
        0
        spline 0 { ref 34 } F 0 F 44.718536412038702 F -20 F 0 
        } 0 0 #
-89 face $-1 $-1 $91 $3 $-1 $90 forward single #
-90 spline-surface $-1 forward { exactsur nubs 1 1 open open none none 2 2
        -20 1 0 1 
        0 1 20.300000000000182 1 
        12.769402719994314 19.99999999999995 20.000000000000011 
        12.769402719994314 -4.9737991503207013e-14 20 
        33.0694027199945 19.99999999999995 20.000000000000011 
        33.0694027199945 -4.9737991503207013e-14 20 
        0
        0
        0
        0
        0
        0
        0
        F -20 F 0 F 0 F 20.300000000000182 } F -20 F 0 F 0 F 20.300000000000182 #
-91 loop $-1 $-1 $92 $89 #
-92 coedge $-1 $94 $98 $33 $116 reversed $91 $93 #
-93 pcurve $-1 0 forward { exppc nubs 1 open 2
        -22.5 1 -2.2000000000000028 1 
        0 0 
        0 20.300000000000182 
        0
        spline 0 { ref 39 } F -20 F 0 F 0 F 20.300000000000182 
        } 0 0 #
-94 coedge $-1 $96 $92 $18 $108 reversed $91 $95 #
-95 pcurve $-1 0 forward { exppc nubs 1 open 2
        -20 1 -0 1 
        0 20.300000000000182 
        -20 20.300000000000182 
        0
        spline 0 { ref 39 } F -20 F 0 F 0 F 20.300000000000182 
        } 0 0 #
-96 coedge $-1 $98 $94 $48 $124 reversed $91 $97 #
-97 pcurve $-1 0 forward { exppc nubs 1 open 2
        -47.799999999999997 1 -27.5 1 
        -20 20.300000000000182 
        -20 0 
        0
        spline 0 { ref 39 } F -20 F 0 F 0 F 20.300000000000182 
        } 0 0 #
-98 coedge $-1 $92 $96 $13 $104 forward $91 $99 #
-99 pcurve $-1 0 forward { exppc nubs 1 open 2
        65 1 85 1 
        -20 0 
        0 0 
        0
        spline 0 { ref 39 } F -20 F 0 F 0 F 20.300000000000182 
        } 0 0 #
-100 edge $-1 $136 $138 $11 $101 forward #
-101 intcurve-curve $-1 forward { exactcur nubs 1 open 2
        0 1 70 1 
        12.769402719994314 -4.9737991503207013e-14 20 
        12.769402719994314 -4.9737991503207013e-14 90 
        0
        null_surface
        null_surface
        nullbs
        nullbs
        I I
        0
        0
        0
        F 0 F 70 } F 0 F 70 #
-102 edge $-1 $140 $142 $7 $103 forward #
-103 intcurve-curve $-1 forward { exactcur nubs 1 open 2
        0 1 70 1 
        12.769402719994314 19.99999999999995 20 
        12.769402719994314 19.99999999999995 90 
        0
        null_surface
        null_surface
        nullbs
        nullbs
        I I
        0
        0
        0
        F 0 F 70 } F 0 F 70 #
-104 edge $-1 $140 $136 $13 $105 forward #
-105 intcurve-curve $-1 forward { exactcur nubs 1 open 2
        65 1 85 1 
        12.769402719994314 19.99999999999995 20 
        12.769402719994314 -4.9737991503207013e-14 20 
        0
        null_surface
        null_surface
        nullbs
        nullbs
        I I
        0
        0
        0
        F 65 F 85 } F 65 F 85 #
-106 edge $-1 $142 $138 $9 $107 forward #
-107 intcurve-curve $-1 forward { exactcur nubs 1 open 2
        65 1 85 1 
        12.769402719994314 19.99999999999995 90 
        12.769402719994314 -4.9737991503207013e-14 90 
        0
        null_surface
        null_surface
        nullbs
        nullbs
        I I
        0
        0
        0
        F 65 F 85 } F 65 F 85 #
-108 edge $-1 $144 $146 $18 $109 forward #
-109 intcurve-curve $-1 forward { exactcur nubs 1 open 2
        0 1 20 1 
        33.0694027199945 19.99999999999995 20 
        33.0694027199945 -4.9737991503207013e-14 20 
        0
        null_surface
        null_surface
        nullbs
        nullbs
        I I
        0
        0
        0
        F 0 F 20 } F 0 F 20 #
-110 edge $-1 $146 $150 $20 $111 forward #
-111 intcurve-curve $-1 forward { exactcur nubs 1 open 2
        100 1 120 1 
        33.0694027199945 -4.9737991503207013e-14 20 
        33.0694027199945 -4.9737991503207013e-14 0 
        0
        null_surface
        null_surface
        nullbs
        nullbs
        I I
        0
        0
        0
        F 100 F 120 } F 100 F 120 #
-112 edge $-1 $144 $148 $24 $113 forward #
-113 intcurve-curve $-1 forward { exactcur nubs 1 open 2
        100 1 120 1 
        33.0694027199945 19.99999999999995 20 
        33.0694027199945 19.99999999999995 0 
        0
        null_surface
        null_surface
        nullbs
        nullbs
        I I
        0
        0
        0
        F 100 F 120 } F 100 F 120 #
-114 edge $-1 $148 $150 $22 $115 forward #
-115 intcurve-curve $-1 forward { exactcur nubs 1 open 2
        0 1 20 1 
        33.0694027199945 19.99999999999995 0 
        33.0694027199945 -4.9737991503207013e-14 0 
        0
        null_surface
        null_surface
        nullbs
        nullbs
        I I
        0
        0
        0
        F 0 F 20 } F 0 F 20 #
-116 edge $-1 $146 $136 $33 $117 forward #
-117 intcurve-curve $-1 forward { exactcur nubs 1 open 2
        2.2000000000000028 1 22.5 1 
        33.0694027199945 -4.9737991503207013e-14 20 
        12.769402719994314 -4.9737991503207013e-14 20 
        0
        null_surface
        null_surface
        nullbs
        nullbs
        I I
        0
        0
        0
        F 2.2000000000000028 F 22.5 } F 2.2000000000000028 F 22.5 #
-118 edge $-1 $138 $152 $37 $119 forward #
-119 intcurve-curve $-1 forward { exactcur nubs 1 open 2
        0 1 24.418536412039288 1 
        12.769402719994314 -4.9737991503207013e-14 90 
        -11.649133692044206 -4.9737991503207013e-14 90 
        0
        null_surface
        null_surface
        nullbs
        nullbs
        I I
        0
        0
        0
        F 0 F 24.418536412039288 } F 0 F 24.418536412039288 #
-120 edge $-1 $154 $152 $39 $121 forward #
-121 intcurve-curve $-1 forward { exactcur nubs 1 open 2
        -99.000002212155096 1 -9.0000022121551257 1 
        -11.649133692044206 -4.9737991503207013e-14 0 
        -11.649133692044206 -4.9737991503207013e-14 90 
        0
        null_surface
        null_surface
        nullbs
        nullbs
        I I
        0
        0
        0
        F -99.000002212155096 F -9.0000022121551257 } F -99.000002212155096 F -9.0000022121551257 #
-122 edge $-1 $150 $154 $29 $123 forward #
-123 intcurve-curve $-1 forward { exactcur nubs 1 open 2
        0 1 44.718536412039285 1 
        33.0694027199945 -4.9737991503207013e-14 0 
        -11.649133692044206 -4.9737991503207013e-14 0 
        0
        null_surface
        null_surface
        nullbs
        nullbs
        I I
        0
        0
        0
        F 0 F 44.718536412039285 } F 0 F 44.718536412039285 #
-124 edge $-1 $140 $144 $48 $125 forward #
-125 intcurve-curve $-1 forward { exactcur nubs 1 open 2
        27.5 1 47.799999999999997 1 
        12.769402719994314 19.99999999999995 20 
        33.0694027199945 19.99999999999995 20 
        0
        null_surface
        null_surface
        nullbs
        nullbs
        I I
        0
        0
        0
        F 27.5 F 47.799999999999997 } F 27.5 F 47.799999999999997 #
-126 edge $-1 $156 $158 $54 $127 forward #
-127 intcurve-curve $-1 forward { exactcur nubs 1 open 2
        9.0000022121551257 1 99.000002212155096 1 
        -11.649133692044206 19.99999999999995 90 
        -11.649133692044206 19.99999999999995 0 
        0
        null_surface
        null_surface
        nullbs
        nullbs
        I I
        0
        0
        0
        F 9.0000022121551257 F 99.000002212155096 } F 9.0000022121551257 F 99.000002212155096 #
-128 edge $-1 $156 $142 $44 $129 forward #
-129 intcurve-curve $-1 forward { exactcur nubs 1 open 2
        1.2802339219589776 1 25.698770333998247 1 
        -11.649133692044206 19.99999999999995 90 
        12.769402719994314 19.99999999999995 90 
        0
        null_surface
        null_surface
        nullbs
        nullbs
        I I
        0
        0
        0
        F 1.2802339219589776 F 25.698770333998247 } F 1.2802339219589776 F 25.698770333998247 #
-130 edge $-1 $148 $158 $52 $131 forward #
-131 intcurve-curve $-1 forward { exactcur nubs 1 open 2
        0 1 44.718536412039285 1 
        33.0694027199945 19.99999999999995 0 
        -11.649133692044206 19.99999999999995 0 
        0
        null_surface
        null_surface
        nullbs
        nullbs
        I I
        0
        0
        0
        F 0 F 44.718536412039285 } F 0 F 44.718536412039285 #
-132 edge $-1 $152 $156 $59 $133 forward #
-133 intcurve-curve $-1 forward { exactcur nubs 1 open 2
        -20 1 1.7763568394002505e-15 1 
        -11.649133692044206 -4.9737991503207013e-14 90 
        -11.649133692044206 19.99999999999995 90 
        0
        null_surface
        null_surface
        nullbs
        nullbs
        I I
        0
        0
        0
        F -20 F 1.7763568394002505e-15 } F -20 F 1.7763568394002505e-15 #
-134 edge $-1 $158 $154 $63 $135 forward #
-135 intcurve-curve $-1 forward { exactcur nubs 1 open 2
        0 1 20 1 
        -11.649133692044206 19.99999999999995 0 
        -11.649133692044206 -4.9737991503207013e-14 0 
        0
        null_surface
        null_surface
        nullbs
        nullbs
        I I
        0
        0
        0
        F 0 F 20 } F 0 F 20 #
-136 vertex $-1 $100 $137 #
-137 point $-1 12.769402719994314 -4.9737991503207013e-14 20 #
-138 vertex $-1 $100 $139 #
-139 point $-1 12.769402719994314 -4.9737991503207013e-14 90 #
-140 vertex $-1 $102 $141 #
-141 point $-1 12.769402719994314 19.99999999999995 20 #
-142 vertex $-1 $102 $143 #
-143 point $-1 12.769402719994314 19.99999999999995 90 #
-144 vertex $-1 $108 $145 #
-145 point $-1 33.0694027199945 19.99999999999995 20 #
-146 vertex $-1 $108 $147 #
-147 point $-1 33.0694027199945 -4.9737991503207013e-14 20 #
-148 vertex $-1 $112 $149 #
-149 point $-1 33.0694027199945 19.99999999999995 0 #
-150 vertex $-1 $110 $151 #
-151 point $-1 33.0694027199945 -4.9737991503207013e-14 0 #
-152 vertex $-1 $118 $153 #
-153 point $-1 -11.649133692044206 -4.9737991503207013e-14 90 #
-154 vertex $-1 $120 $155 #
-155 point $-1 -11.649133692044206 -4.9737991503207013e-14 0 #
-156 vertex $-1 $126 $157 #
-157 point $-1 -11.649133692044206 19.99999999999995 90 #
-158 vertex $-1 $126 $159 #
-159 point $-1 -11.649133692044206 19.99999999999995 0 #
End-of-ACIS-data
